<svg data-v-fde0c5aa="" xmlns="http://www.w3.org/2000/svg" viewBox="0 0 300 300" class="iconLeft"><!----><defs data-v-fde0c5aa=""><!----></defs><rect data-v-fde0c5aa="" fill="#01252C" x="0" y="0" width="300px" height="300px" class="logo-background-square"></rect><defs data-v-fde0c5aa=""><!----></defs><g data-v-fde0c5aa="" id="707069d2-060b-49ae-a9d6-eebba90ffd5f" fill="#FFFFFF" transform="matrix(6.086135445366493,0,0,6.086135445366493,130.48703585619086,103.77580256936352)"><path d="M2.72 10.53L3.74 5.22L5.53 5.22L6.55 10.53L7.35 5.22L9.17 5.22L7.67 12.05L5.40 12.05L4.63 7.84L3.86 12.05L1.60 12.05L0.10 5.22L1.92 5.22L2.72 10.53ZM11.63 5.08L11.93 5.08L11.93 5.08Q12.64 5.08 13.08 5.42L13.08 5.42L13.08 3.00L14.95 3.00L14.95 12.05L13.37 12.05L13.37 11.55L13.37 11.55Q12.94 12.19 11.93 12.19L11.93 12.19L11.63 12.19L11.63 12.19Q9.90 12.19 9.90 10.35L9.90 10.35L9.90 6.93L9.90 6.93Q9.90 5.08 11.63 5.08L11.63 5.08ZM13.08 10.57L13.08 10.57L13.08 6.71L13.08 6.71Q13.08 6.59 13.00 6.51L13.00 6.51L13.00 6.51Q12.92 6.43 12.81 6.43L12.81 6.43L12.04 6.43L12.04 6.43Q11.93 6.43 11.85 6.51L11.85 6.51L11.85 6.51Q11.77 6.59 11.77 6.71L11.77 6.71L11.77 10.57L11.77 10.57Q11.77 10.68 11.85 10.77L11.85 10.77L11.85 10.77Q11.93 10.85 12.04 10.85L12.04 10.85L12.81 10.85L12.81 10.85Q12.92 10.85 13.00 10.77L13.00 10.77L13.00 10.77Q13.08 10.68 13.08 10.57ZM21.28 6.93L21.28 7.91L19.40 7.91L19.40 6.71L19.40 6.71Q19.40 6.59 19.33 6.51L19.33 6.51L19.33 6.51Q19.25 6.43 19.14 6.43L19.14 6.43L18.37 6.43L18.37 6.43Q18.26 6.43 18.18 6.51L18.18 6.51L18.18 6.51Q18.10 6.59 18.10 6.71L18.10 6.71L18.10 10.57L18.10 10.57Q18.10 10.68 18.18 10.77L18.18 10.77L18.18 10.77Q18.26 10.85 18.37 10.85L18.37 10.85L19.14 10.85L19.14 10.85Q19.25 10.85 19.33 10.77L19.33 10.77L19.33 10.77Q19.40 10.68 19.40 10.57L19.40 10.57L19.40 9.37L21.28 9.37L21.28 10.35L21.28 10.35Q21.28 12.19 19.54 12.19L19.54 12.19L17.96 12.19L17.96 12.19Q16.23 12.19 16.23 10.35L16.23 10.35L16.23 6.93L16.23 6.93Q16.23 5.08 17.96 5.08L17.96 5.08L19.54 5.08L19.54 5.08Q21.28 5.08 21.28 6.93L21.28 6.93Z"></path></g><defs data-v-fde0c5aa=""><!----></defs><g data-v-fde0c5aa="" id="259fb9c1-5961-4cf3-a359-f2739a54c60d" stroke="none" fill="#88DF95" transform="matrix(0.8395353360638481,0,0,0.8395353360638481,35.1344487067555,119.83083377379899)"><path d="M41.636 47.048H15.574c1.182-7.147 4.987-21.152 17.054-32.919l5.741 16.076a3.473 3.473 0 0 0 3.267 2.304h25.815c1.915 0 3.47-1.554 3.47-3.469s-1.555-3.468-3.47-3.468h-23.37L37.197 6.288a3.462 3.462 0 0 0-.32-.662c-.157-.3-.34-.593-.567-.863a4.626 4.626 0 0 0-6.516-.56C6.48 23.836 5.816 50.478 5.796 51.604a4.627 4.627 0 0 0 4.623 4.693h26.59v25.048a4.625 4.625 0 0 0 9.249 0V51.674a4.623 4.623 0 0 0-4.622-4.626z"></path><circle cx="46.26" cy="-3.916" r="10.115"></circle><path d="M74.774 37.125H61.479a2.312 2.312 0 1 0 0 4.624h13.295a2.31 2.31 0 0 0 2.312-2.312 2.309 2.309 0 0 0-2.312-2.312zM89.287 22.828c-.204-.422-.541-.719-.915-.942L98.818-2.418l-6.375-2.741-15.156 35.267 6.375 2.739 2.505-5.833 4.867 10.111h-7.012a2.31 2.31 0 0 0-2.312 2.312 2.31 2.31 0 0 0 2.312 2.312h10.693a2.31 2.31 0 0 0 1.956-1.081 2.32 2.32 0 0 0 .128-2.233l-7.512-15.607z"></path></g><!----></svg>