<svg data-v-423bf9ae="" xmlns="http://www.w3.org/2000/svg" viewBox="0 0 138.2807482410727 60" class="font"><!----><!----><!----><g data-v-423bf9ae="" id="13d94a74-d4d0-421b-8e37-14ffc9bd9cd9" fill="white" transform="matrix(6.528835989076018,0,0,6.528835989076018,-0.6528829718231748,-19.5865074903909)"><path d="M2.72 10.53L3.74 5.22L5.53 5.22L6.55 10.53L7.35 5.22L9.17 5.22L7.67 12.05L5.40 12.05L4.63 7.84L3.86 12.05L1.60 12.05L0.10 5.22L1.92 5.22L2.72 10.53ZM11.63 5.08L11.93 5.08L11.93 5.08Q12.64 5.08 13.08 5.42L13.08 5.42L13.08 3.00L14.95 3.00L14.95 12.05L13.37 12.05L13.37 11.55L13.37 11.55Q12.94 12.19 11.93 12.19L11.93 12.19L11.63 12.19L11.63 12.19Q9.90 12.19 9.90 10.35L9.90 10.35L9.90 6.93L9.90 6.93Q9.90 5.08 11.63 5.08L11.63 5.08ZM13.08 10.57L13.08 10.57L13.08 6.71L13.08 6.71Q13.08 6.59 13.00 6.51L13.00 6.51L13.00 6.51Q12.92 6.43 12.81 6.43L12.81 6.43L12.04 6.43L12.04 6.43Q11.93 6.43 11.85 6.51L11.85 6.51L11.85 6.51Q11.77 6.59 11.77 6.71L11.77 6.71L11.77 10.57L11.77 10.57Q11.77 10.68 11.85 10.77L11.85 10.77L11.85 10.77Q11.93 10.85 12.04 10.85L12.04 10.85L12.81 10.85L12.81 10.85Q12.92 10.85 13.00 10.77L13.00 10.77L13.00 10.77Q13.08 10.68 13.08 10.57ZM21.28 6.93L21.28 7.91L19.40 7.91L19.40 6.71L19.40 6.71Q19.40 6.59 19.33 6.51L19.33 6.51L19.33 6.51Q19.25 6.43 19.14 6.43L19.14 6.43L18.37 6.43L18.37 6.43Q18.26 6.43 18.18 6.51L18.18 6.51L18.18 6.51Q18.10 6.59 18.10 6.71L18.10 6.71L18.10 10.57L18.10 10.57Q18.10 10.68 18.18 10.77L18.18 10.77L18.18 10.77Q18.26 10.85 18.37 10.85L18.37 10.85L19.14 10.85L19.14 10.85Q19.25 10.85 19.33 10.77L19.33 10.77L19.33 10.77Q19.40 10.68 19.40 10.57L19.40 10.57L19.40 9.37L21.28 9.37L21.28 10.35L21.28 10.35Q21.28 12.19 19.54 12.19L19.54 12.19L17.96 12.19L17.96 12.19Q16.23 12.19 16.23 10.35L16.23 10.35L16.23 6.93L16.23 6.93Q16.23 5.08 17.96 5.08L17.96 5.08L19.54 5.08L19.54 5.08Q21.28 5.08 21.28 6.93L21.28 6.93Z"></path></g><!----><!----></svg>